<?xml version="1.0" encoding="utf-8"?>
<!-- Generator: Adobe Illustrator 27.0.0, SVG Export Plug-In . SVG Version: 6.00 Build 0)  -->
<svg version="1.1" id="Layer_1" xmlns="http://www.w3.org/2000/svg" xmlns:xlink="http://www.w3.org/1999/xlink" x="0px" y="0px"
	 viewBox="0 0 72 72" style="enable-background:new 0 0 72 72;" xml:space="preserve">
<style type="text/css">
	.st0{fill:#444545;}
	.st1{fill:none;stroke:#F1F2F2;stroke-width:5;stroke-miterlimit:10;}
	.st2{fill:none;stroke:#F1F2F2;stroke-width:5;stroke-linejoin:round;stroke-miterlimit:10;}
	.st3{fill:none;stroke:#F1F2F2;stroke-width:5;stroke-linecap:round;stroke-miterlimit:10;}
</style>
<path class="st0" d="M62.72,72H9.28C4.15,72,0,67.85,0,62.72V9.28C0,4.15,4.15,0,9.28,0h53.45C67.85,0,72,4.15,72,9.28v53.45
	C72,67.85,67.85,72,62.72,72z"/>
<path class="st1" d="M22.5,14.13C22.5,11.3,24.8,9,27.63,9h25.74c2.83,0,5.13,2.3,5.13,5.13v25.74c0,2.83-2.3,5.13-5.13,5.13"/>
<path class="st2" d="M44.37,54H40.5l-9,9v-9H18.63c-2.83,0-5.13-2.3-5.13-5.13V23.13c0-2.83,2.3-5.13,5.13-5.13h25.74
	c2.83,0,5.13,2.3,5.13,5.13v25.74C49.5,51.7,47.2,54,44.37,54z"/>
<line class="st3" x1="22.5" y1="45" x2="40.5" y2="45"/>
<line class="st3" x1="22.5" y1="36" x2="40.5" y2="36"/>
<line class="st3" x1="22.5" y1="27" x2="40.5" y2="27"/>
</svg>
